# xmcd
#
# Track frame offsets:
#	150
#	16164
#	38298
#	59701
#	78614
#	98063
#	116021
#	134695
#	151773
#	164827
#	186542
#	207505
#
# Disc length: 3092 seconds
#
# Revision: 1
# Processed by: cddbd v1.4PL0 Copyright (c) Steve Scherf et al.
# Submitted via: EasyCDDAExtractor 5.0.7
#
DISCID=a80c120c
DTITLE=Gordon Haskell - Shadows on the wall - Finnish version
DYEAR=2003
DGENRE=
TTITLE0=Sunshine Days
TTITLE1=Shadows On The Wall
TTITLE2=The Music Played (duet with Maarit)
TTITLE3=Whole Wide World
TTITLE4=Roll Away
TTITLE5=Long Lost Friends
TTITLE6=If You Could Read My Mind
TTITLE7=Country Gold
TTITLE8=Walking In A Wilderness
TTITLE9=The Other Side
TTITLE10=California On His Mind
TTITLE11=Shadows On The Wall (Acoustic)
EXTD=
EXTT0=
EXTT1=
EXTT2=
EXTT3=
EXTT4=
EXTT5=
EXTT6=
EXTT7=
EXTT8=
EXTT9=
EXTT10=
EXTT11=
PLAYORDER=
